<svg width="512" height="512" viewBox="0 0 512 512" xmlns="http://www.w3.org/2000/svg" role="img" aria-labelledby="title">
  <title>Volley Team Crest</title>
  <defs>
    <linearGradient id="crestGradient" x1="0" y1="0" x2="1" y2="1">
      <stop offset="0%" stop-color="#f5d7a6" />
      <stop offset="100%" stop-color="#c88b4a" />
    </linearGradient>
    <linearGradient id="ballGradient" x1="0" y1="0" x2="1" y2="1">
      <stop offset="0%" stop-color="#fef6e4" />
      <stop offset="100%" stop-color="#f4c96a" />
    </linearGradient>
  </defs>
  <g fill="none" fill-rule="evenodd">
    <circle cx="256" cy="256" r="220" fill="url(#crestGradient)" opacity="0.95" />
    <path d="M256 70c-102.69 0-186 83.31-186 186s83.31 186 186 186 186-83.31 186-186S358.69 70 256 70zm0 32c85.925 0 155.5 69.575 155.5 155.5S341.925 413 256 413s-155.5-69.575-155.5-155.5S170.075 102 256 102z" fill="#8b5e2a" opacity="0.4" />
    <g transform="translate(128 128)">
      <path d="M128 0c70.692 0 128 57.308 128 128s-57.308 128-128 128S0 198.692 0 128 57.308 0 128 0z" fill="url(#ballGradient)" opacity="0.9" />
      <path d="M128 12c-63.524 0-116 52.476-116 116s52.476 116 116 116 116-52.476 116-116S191.524 12 128 12zm0 27c48.877 0 89 40.123 89 89s-40.123 89-89 89-89-40.123-89-89 40.123-89 89-89z" fill="#c87c31" opacity="0.35" />
      <path d="M130 52c28.167 0 51 22.833 51 51 0 28.167-22.833 51-51 51-28.167 0-51-22.833-51-51 0-28.167 22.833-51 51-51z" fill="#f5e1be" opacity="0.7" />
    </g>
    <path d="M256 154c-13.807 0-26 12.193-26 26 0 12.727 6.75 20.729 16.936 27.918l52.06 36.034C313.865 252.893 320 263.66 320 276c0 22.091-17.909 40-40 40-17.158 0-31.698-11.004-37.115-26.354a13 13 0 00-24.77 8.708C225.008 319.628 244.166 336 280 336c36.346 0 66-29.654 66-66 0-20.995-10.015-40.078-27.076-52.097l-49.5-34.279C264.41 178.422 266 173.936 266 166c0-6.075-4.925-12-10-12z" fill="#8b5e2a" opacity="0.55" />
  </g>
</svg>
