<svg xmlns="http://www.w3.org/2000/svg" xmlns:xlink="http://www.w3.org/1999/xlink" width="4000" zoomAndPan="magnify" viewBox="0 0 3000 2999.999989" height="4000" preserveAspectRatio="xMidYMid meet" version="1.2"><defs><clipPath id="3740f08b3e"><path d="M 1206 51 L 2709 51 L 2709 2363 L 1206 2363 Z M 1206 51 "/></clipPath><clipPath id="1d914d39ad"><path d="M 2708.339844 57.691406 L 2225.527344 1526.589844 C 2225.320312 1527.101562 2225.320312 1527.613281 2225.320312 1528.125 L 2225.320312 2139.925781 C 2225.320312 2141.972656 2224.09375 2143.710938 2222.253906 2144.53125 L 1700.773438 2362.410156 C 1697.5 2363.738281 1693.917969 2361.386719 1693.917969 2357.808594 L 1693.917969 2040.703125 C 1693.917969 2039.070312 1694.738281 2037.636719 1695.964844 2036.714844 C 1794.164062 1967.667969 1881.113281 1867.9375 1942.382812 1744.367188 C 2102.570312 1421.027344 2026.363281 1056.5625 1772.171875 930.644531 C 1649.523438 869.882812 1507.851562 875.609375 1376 934.222656 C 1373.75 935.246094 1371.191406 934.429688 1369.863281 932.382812 L 1210.183594 682.382812 L 1206.296875 676.347656 L 1210.183594 674.710938 L 1689.519531 474.324219 C 1691.875 473.300781 1694.636719 474.324219 1695.863281 476.574219 L 1902.796875 874.179688 C 1904.84375 878.066406 1910.46875 877.65625 1911.902344 873.566406 L 2114.128906 298.792969 C 2114.640625 297.460938 2115.5625 296.4375 2116.894531 295.824219 L 2701.691406 51.554688 C 2705.578125 49.917969 2709.667969 53.601562 2708.339844 57.691406 "/></clipPath><clipPath id="a5f6636a20"><path d="M 0.238281 0 L 1503 0 L 1503 2312 L 0.238281 2312 Z M 0.238281 0 "/></clipPath><clipPath id="a6e708f275"><path d="M 1502.339844 6.691406 L 1019.527344 1475.589844 C 1019.320312 1476.101562 1019.320312 1476.613281 1019.320312 1477.125 L 1019.320312 2088.925781 C 1019.320312 2090.972656 1018.09375 2092.710938 1016.253906 2093.53125 L 494.773438 2311.410156 C 491.5 2312.738281 487.917969 2310.386719 487.917969 2306.808594 L 487.917969 1989.703125 C 487.917969 1988.070312 488.738281 1986.636719 489.964844 1985.714844 C 588.164062 1916.667969 675.113281 1816.9375 736.382812 1693.367188 C 896.570312 1370.027344 820.363281 1005.5625 566.171875 879.644531 C 443.523438 818.882812 301.851562 824.609375 170 883.222656 C 167.75 884.246094 165.191406 883.429688 163.863281 881.382812 L 4.183594 631.382812 L 0.296875 625.347656 L 4.183594 623.710938 L 483.519531 423.324219 C 485.875 422.300781 488.636719 423.324219 489.863281 425.574219 L 696.796875 823.179688 C 698.84375 827.066406 704.46875 826.65625 705.902344 822.566406 L 908.128906 247.792969 C 908.640625 246.460938 909.5625 245.4375 910.894531 244.824219 L 1495.691406 0.554688 C 1499.578125 -1.082031 1503.667969 2.601562 1502.339844 6.691406 "/></clipPath><clipPath id="94c7b0b340"><rect x="0" width="1503" y="0" height="2312"/></clipPath><clipPath id="31fddbd7e2"><path d="M 291 674 L 1211 674 L 1211 2949 L 291 2949 Z M 291 674 "/></clipPath><clipPath id="ca476e87fc"><path d="M 1210.183594 674.8125 L 1210.183594 2049.296875 C 1210.183594 2067.8125 1209.46875 2086.019531 1208.140625 2104.332031 C 1207.832031 2109.546875 1207.21875 2114.660156 1206.707031 2119.777344 C 1206.503906 2122.84375 1206.195312 2126.015625 1205.890625 2129.085938 C 1176.328125 2410.589844 995.785156 2656.90625 730.542969 2767.6875 L 384.699219 2912.429688 L 298.363281 2948.539062 C 295.089844 2949.867188 291.511719 2947.515625 291.511719 2943.933594 L 291.511719 2743.035156 C 291.511719 2741.707031 292.023438 2740.476562 292.941406 2739.558594 L 677.046875 2357.191406 C 677.964844 2356.273438 678.476562 2354.941406 678.476562 2353.613281 L 676.941406 1265.441406 C 676.941406 1264.007812 676.328125 1262.78125 675.410156 1261.757812 L 411.089844 1016.261719 C 408.429688 1013.804688 409.246094 1009.40625 412.519531 1007.976562 L 1206.296875 676.449219 Z M 1210.183594 674.8125 "/></clipPath><clipPath id="2066703221"><path d="M 0.359375 0.640625 L 919.320312 0.640625 L 919.320312 2275 L 0.359375 2275 Z M 0.359375 0.640625 "/></clipPath><clipPath id="e3c98cfdc5"><path d="M 919.183594 0.8125 L 919.183594 1375.296875 C 919.183594 1393.8125 918.46875 1412.019531 917.140625 1430.332031 C 916.832031 1435.546875 916.21875 1440.660156 915.707031 1445.777344 C 915.503906 1448.84375 915.195312 1452.015625 914.890625 1455.085938 C 885.328125 1736.589844 704.785156 1982.90625 439.542969 2093.6875 L 93.699219 2238.429688 L 7.363281 2274.539062 C 4.089844 2275.867188 0.511719 2273.515625 0.511719 2269.933594 L 0.511719 2069.035156 C 0.511719 2067.707031 1.023438 2066.476562 1.941406 2065.558594 L 386.046875 1683.191406 C 386.964844 1682.273438 387.476562 1680.941406 387.476562 1679.613281 L 385.941406 591.441406 C 385.941406 590.007812 385.328125 588.78125 384.410156 587.757812 L 120.089844 342.261719 C 117.429688 339.804688 118.246094 335.40625 121.519531 333.976562 L 915.296875 2.449219 Z M 919.183594 0.8125 "/></clipPath><clipPath id="0d336a0d97"><rect x="0" width="920" y="0" height="2275"/></clipPath></defs><g id="c94d3dd241"><g clip-rule="nonzero" clip-path="url(#3740f08b3e)"><g clip-rule="nonzero" clip-path="url(#1d914d39ad)"><g transform="matrix(1,0,0,1,1206,51)"><g clip-path="url(#94c7b0b340)"><g clip-rule="nonzero" clip-path="url(#a5f6636a20)"><g clip-rule="nonzero" clip-path="url(#a6e708f275)"><rect x="0" width="1503" height="2312" y="0" style="fill:#ffffff;fill-opacity:1;stroke:none;"/></g></g></g></g></g></g><g clip-rule="nonzero" clip-path="url(#31fddbd7e2)"><g clip-rule="nonzero" clip-path="url(#ca476e87fc)"><g transform="matrix(1,0,0,1,291,674)"><g clip-path="url(#0d336a0d97)"><g clip-rule="nonzero" clip-path="url(#2066703221)"><g clip-rule="nonzero" clip-path="url(#e3c98cfdc5)"><rect x="0" width="920" height="2275" y="0" style="fill:#ffffff;fill-opacity:1;stroke:none;"/></g></g></g></g></g></g></g></svg>